# xmcd
#
# Track frame offsets: 
#        150
#        16292
#        33205
#        52695
#        70982
#        83740
#        99545
#        117377
#        134915
#        160605
#        186080
#        200852
#
# Disc length: 2914 seconds
#
# Revision: 3
# Processed by: cddbd v1.5.2PL0 Copyright (c) Steve Scherf et al.
# Submitted via: ExactAudioCopyFreeDBPlugin 1.0
#
DISCID=a00b600c
DTITLE=Delegation - The Promise Of Love
DYEAR=1977
DGENRE=Soul
TTITLE0=The Promise Of Love
TTITLE1=You're Been Doing Me Wrong
TTITLE2=Mr. Heartbreak
TTITLE3=Let Me Take You To The Sun
TTITLE4=Back Door Love
TTITLE5=Honey I'm Rich
TTITLE6=Where Is The Love We Used To Know
TTITLE7=Soul Trippin'
TTITLE8=Oh Honey
TTITLE9=Someone Oughta Write A Song (About You Baby)
TTITLE10=Love Is Like A Fire
TTITLE11=You And Your Love
EXTD=YEAR: 1977 ID3G: 42
EXTT0=
EXTT1=
EXTT2=
EXTT3=
EXTT4=
EXTT5=
EXTT6=
EXTT7=
EXTT8=
EXTT9=
EXTT10=
EXTT11=
PLAYORDER=
